<?xml version="1.0" encoding="utf-8"?>
<!-- Generator: Adobe Illustrator 19.0.0, SVG Export Plug-In . SVG Version: 6.00 Build 0)  -->
<svg version="1.1" id="Layer_1" xmlns="http://www.w3.org/2000/svg" xmlns:xlink="http://www.w3.org/1999/xlink" x="0px" y="0px"
	 viewBox="0 0 350 200" style="enable-background:new 0 0 350 200;" xml:space="preserve">
<style type="text/css">
	.st0{fill:#282C35;}
	.st1{fill:#3E434F;}
	.st2{fill:#E6E7E8;}
	.st3{fill:#F1F2F2;}
	.st4{fill:#E3E4E4;}
	.st5{fill:#D1D3D4;}
	.st6{fill:#393E49;}
	.st7{fill:#27576D;}
	.st8{fill:#2B5D74;}
	.st9{fill:#2F647D;}
	.st10{fill:#403F44;}
	.st11{opacity:0.3;fill:#FF876C;}
	.st12{fill:#FFFFFF;}
	.st13{fill:#353439;}
	.st14{fill:#3E3D42;}
	.st15{fill:#FBFBFB;}
	.st16{fill:#E59ECF;}
	.st17{fill:#DB9ACA;}
	.st18{fill:#CE91C1;}
	.st19{fill:#F3796A;}
	.st20{fill:#F37368;}
	.st21{fill:#C2C4C5;}
	.st22{fill:#C3EBF3;}
	.st23{opacity:0.3;fill:#A7A9AC;}
	.st24{opacity:0.2;fill:#FF876C;}
	.st25{opacity:0.2;fill:#C85B55;}
	.st26{fill:#343943;}
	.st27{fill:#262A33;}
	.st28{fill:#1F232C;}
	.st29{fill:#40A58C;}
	.st30{font-family:'OpenSans-Bold';}
	.st31{font-size:10.9207px;}
	.st32{fill:#FF876C;}
	.st33{font-size:9.1964px;}
</style>
<g id="XMLID_277_">
	<g id="XMLID_280_">
		<path id="XMLID_114_" class="st0" d="M250.2,40c0-3.2-2.2-5.7-5-5.7H87.6c-2.8,0-5,2.6-5,5.7v92.4h167.6V40z"/>
		<path id="XMLID_113_" class="st1" d="M239.1,48.7c0-2.6-1.9-4.7-4.3-4.7H97.9c-2.4,0-4.3,2.1-4.3,4.7v76.5h145.5V48.7z"/>
		<polygon id="XMLID_112_" class="st2" points="188.8,157.1 184.6,157.1 149,157.1 144.8,157.1 142.6,181 149,181 184.6,181 
			191,181 		"/>
		<path id="XMLID_111_" class="st3" d="M82.6,132.2v25.5c0,2.6,2.2,4.7,5,4.7h157.6c2.8,0,5-2.1,5-4.7v-25.5H82.6z"/>
		<polygon id="XMLID_110_" class="st4" points="189,165.2 144.6,165.2 144.8,162.4 188.8,162.4 		"/>
		<g id="XMLID_282_">
			<path id="XMLID_109_" class="st5" d="M197.1,185c0.2-0.4,0.3-0.8,0.3-1.3c0-1.7-1.4-3.1-3.1-3.1h-55.7c-1.7,0-3.1,1.4-3.1,3.1
				c0,0.4,0.1,0.9,0.3,1.3H197.1z"/>
		</g>
		<path id="XMLID_108_" class="st2" d="M173.5,147.3c0,3.7-3,6.7-6.7,6.7c-3.7,0-6.7-3-6.7-6.7c0-3.7,3-6.7,6.7-6.7
			C170.5,140.6,173.5,143.6,173.5,147.3z"/>
	</g>
	<g id="XMLID_278_">
		<path id="XMLID_107_" class="st6" d="M239.1,49.8v-1.2c0-2.6-1.9-4.7-4.3-4.7H97.9c-2.4,0-4.3,2.1-4.3,4.7v75.6
			C112.9,88.1,168.5,59.7,239.1,49.8z"/>
	</g>
</g>
<g id="XMLID_226_">
	<g id="XMLID_231_">
		<g id="XMLID_264_">
			<g id="XMLID_267_">
				<g id="XMLID_273_">
					<polygon id="XMLID_106_" class="st7" points="297.1,136.5 305.3,182.1 304,182.3 295.8,136.7 					"/>
					<polygon id="XMLID_105_" class="st8" points="295.8,136.7 304,182.3 302.7,182.5 294.5,136.9 					"/>
					<polygon id="XMLID_104_" class="st9" points="293.2,137.1 294.5,136.9 302.7,182.5 301.4,182.7 					"/>
				</g>
				<g id="XMLID_270_">
					<path id="XMLID_103_" class="st10" d="M293.4,131.8l0.2-3.4l1.4,3.2C294.5,131.9,294,132,293.4,131.8z"/>
					<path id="XMLID_102_" class="st11" d="M295,131.6l2.1,4.9l-4,0.6l0.3-5.3C294,132,294.5,131.9,295,131.6z"/>
				</g>
				<polygon id="XMLID_101_" class="st12" points="301.6,184 305.6,183.4 305.3,182.1 301.4,182.7 				"/>
				<polygon id="XMLID_100_" class="st13" points="302.4,188.6 306.4,188 305.6,183.4 301.6,184 				"/>
			</g>
			<polygon id="XMLID_99_" class="st14" points="306.4,188 305.6,183.4 304.3,183.6 305.2,188.2 			"/>
			<polygon id="XMLID_98_" class="st15" points="305.3,182.1 305.6,183.4 304.3,183.6 304.1,182.3 			"/>
		</g>
		<g id="XMLID_245_">
			<g id="XMLID_248_">
				<g id="XMLID_254_">
					<polygon id="XMLID_97_" class="st16" points="304.9,136.4 301,182.5 299.7,182.4 303.6,136.4 					"/>
					<polygon id="XMLID_96_" class="st17" points="303.6,136.4 299.7,182.4 298.3,182.3 302.2,136.3 					"/>
					<polygon id="XMLID_95_" class="st18" points="300.9,136.2 302.2,136.3 298.3,182.3 297,182.2 					"/>
				</g>
				<g id="XMLID_251_">
					<path id="XMLID_94_" class="st10" d="M302.6,131.1l1.1-3.3l0.5,3.4C303.6,131.4,303.1,131.4,302.6,131.1z"/>
					<path id="XMLID_93_" class="st11" d="M304.2,131.2l0.8,5.2l-4-0.3l1.7-5.1C303.1,131.4,303.6,131.4,304.2,131.2z"/>
				</g>
				<polygon id="XMLID_92_" class="st12" points="296.9,183.5 300.9,183.8 301,182.5 297,182.2 				"/>
				<polygon id="XMLID_91_" class="st13" points="296.4,188.2 300.5,188.5 300.9,183.8 296.9,183.5 				"/>
			</g>
			<polygon id="XMLID_90_" class="st14" points="300.5,188.5 300.9,183.8 299.6,183.7 299.2,188.4 			"/>
			<polygon id="XMLID_89_" class="st15" points="301,182.5 300.9,183.8 299.6,183.7 299.8,182.4 			"/>
		</g>
		<g id="XMLID_232_">
			<g id="XMLID_235_">
				<g id="XMLID_241_">
					<polygon id="XMLID_88_" class="st19" points="291.4,135.7 300.7,181.1 299.4,181.3 290.1,135.9 					"/>
					<polygon id="XMLID_87_" class="st19" points="290.1,135.9 299.4,181.3 298.1,181.6 288.7,136.1 					"/>
					<polygon id="XMLID_86_" class="st20" points="287.4,136.3 288.7,136.1 298.1,181.6 296.8,181.8 					"/>
				</g>
				<g id="XMLID_238_">
					<path id="XMLID_85_" class="st10" d="M287.6,131l0.1-3.4l1.4,3.1C288.7,131.1,288.2,131.2,287.6,131z"/>
					<path id="XMLID_84_" class="st11" d="M289.2,130.8l2.3,4.9l-4,0.6l0.2-5.3C288.2,131.2,288.7,131.1,289.2,130.8z"/>
				</g>
				<polygon id="XMLID_83_" class="st12" points="297,183 301,182.4 300.7,181.1 296.8,181.8 				"/>
				<polygon id="XMLID_82_" class="st13" points="298,187.6 301.9,187 301,182.4 297,183 				"/>
			</g>
			<polygon id="XMLID_81_" class="st14" points="301.9,187 301,182.4 299.8,182.6 300.7,187.2 			"/>
			<polygon id="XMLID_80_" class="st15" points="300.7,181.1 301,182.4 299.8,182.6 299.5,181.3 			"/>
		</g>
	</g>
	<g id="XMLID_227_">
		<rect id="XMLID_79_" x="280.8" y="159.1" class="st3" width="34.1" height="4.4"/>
		<rect id="XMLID_78_" x="283.8" y="163.5" class="st2" width="28.1" height="27.8"/>
		<rect id="XMLID_77_" x="283.8" y="163.5" class="st5" width="28.1" height="1.3"/>
	</g>
</g>
<g id="XMLID_183_">
	<g id="XMLID_211_">
		<g id="XMLID_212_">
			<g id="XMLID_213_">
				<g id="XMLID_222_">
					<rect id="XMLID_76_" x="108.5" y="28.8" class="st12" width="114.1" height="96.3"/>
					<path id="XMLID_75_" class="st5" d="M222.6,20.8c0-3.2-2.6-5.7-5.7-5.7H114.2c-3.2,0-5.7,2.6-5.7,5.7V21h114.1V20.8z"/>
					<rect id="XMLID_74_" x="108.5" y="21" class="st2" width="114.1" height="7.8"/>
				</g>
				<path id="XMLID_73_" class="st12" d="M121.4,26.3c0,0.3,0.3,0.5,0.7,0.5h86.8c0.4,0,0.7-0.2,0.7-0.5v-2.7c0-0.3-0.3-0.5-0.7-0.5
					h-86.8c-0.4,0-0.7,0.2-0.7,0.5V26.3z"/>
				<circle id="XMLID_72_" class="st21" cx="112.7" cy="18" r="0.8"/>
				<circle id="XMLID_71_" class="st21" cx="115" cy="18" r="0.8"/>
				<circle id="XMLID_70_" class="st21" cx="117.4" cy="18" r="0.8"/>
				<path id="XMLID_69_" class="st5" d="M111,25.6c0,0.4,0.4,0.8,0.8,0.8h1.7c0.4,0,0.8-0.4,0.8-0.8v-1.3c0-0.4-0.4-0.8-0.8-0.8
					h-1.7c-0.4,0-0.8,0.4-0.8,0.8V25.6z"/>
				<path id="XMLID_68_" class="st5" d="M116,25.5c0,0.4,0.4,0.8,0.8,0.8h1.7c0.4,0,0.8-0.4,0.8-0.8v-1.3c0-0.4-0.4-0.8-0.8-0.8
					h-1.7c-0.4,0-0.8,0.4-0.8,0.8V25.5z"/>
				<path id="XMLID_67_" class="st5" d="M211.7,25.6c0,0.4,0.4,0.8,0.8,0.8h1.7c0.4,0,0.8-0.4,0.8-0.8v-1.3c0-0.4-0.4-0.8-0.8-0.8
					h-1.7c-0.4,0-0.8,0.4-0.8,0.8V25.6z"/>
				<path id="XMLID_66_" class="st5" d="M216.5,25.6c0,0.4,0.4,0.8,0.8,0.8h1.7c0.4,0,0.8-0.4,0.8-0.8v-1.3c0-0.4-0.4-0.8-0.8-0.8
					h-1.7c-0.4,0-0.8,0.4-0.8,0.8V25.6z"/>
			</g>
		</g>
	</g>
	<rect id="XMLID_65_" x="112.7" y="32.4" class="st22" width="72.8" height="24.3"/>
	<rect id="XMLID_64_" x="187.6" y="32.4" class="st23" width="30.6" height="24.3"/>
	<rect id="XMLID_63_" x="108.5" y="59.4" class="st11" width="114.1" height="20.4"/>
	<rect id="XMLID_62_" x="113.5" y="83.3" class="st22" width="32.7" height="21.7"/>
	<rect id="XMLID_61_" x="149.4" y="83.3" class="st22" width="32.7" height="21.7"/>
	<rect id="XMLID_60_" x="185.5" y="83.3" class="st22" width="32.7" height="21.7"/>
	<g id="XMLID_200_">
		<rect id="XMLID_59_" x="113.5" y="108.2" class="st23" width="24.5" height="3.6"/>
		<rect id="XMLID_58_" x="113.5" y="113.5" class="st3" width="28.9" height="1.9"/>
		<rect id="XMLID_57_" x="113.5" y="117.5" class="st3" width="17.7" height="1.9"/>
		<rect id="XMLID_56_" x="132.7" y="117.5" class="st3" width="7.9" height="1.9"/>
	</g>
	<g id="XMLID_195_">
		<rect id="XMLID_55_" x="113.7" y="66.4" class="st24" width="17.5" height="2"/>
		<rect id="XMLID_54_" x="113.7" y="69.4" class="st25" width="20.6" height="1"/>
		<rect id="XMLID_53_" x="113.7" y="71.7" class="st25" width="12.6" height="1"/>
		<rect id="XMLID_52_" x="127.4" y="71.7" class="st25" width="5.7" height="1"/>
	</g>
	<g id="XMLID_190_">
		<rect id="XMLID_51_" x="149.4" y="107.9" class="st23" width="24.5" height="3.6"/>
		<rect id="XMLID_50_" x="149.4" y="113.2" class="st3" width="28.9" height="1.9"/>
		<rect id="XMLID_49_" x="149.4" y="117.3" class="st3" width="17.7" height="1.9"/>
		<rect id="XMLID_48_" x="168.5" y="117.3" class="st3" width="7.9" height="1.9"/>
	</g>
	<g id="XMLID_185_">
		<rect id="XMLID_47_" x="185.5" y="107.9" class="st23" width="24.5" height="3.6"/>
		<rect id="XMLID_46_" x="185.5" y="113.2" class="st3" width="28.9" height="1.9"/>
		<rect id="XMLID_45_" x="185.5" y="117.3" class="st3" width="17.7" height="1.9"/>
		<rect id="XMLID_44_" x="204.7" y="117.3" class="st3" width="7.9" height="1.9"/>
	</g>
	<rect id="XMLID_43_" x="213.3" y="67.6" class="st24" width="4.9" height="4.3"/>
</g>
<g id="XMLID_163_">
	<g id="XMLID_174_">
		<g id="XMLID_175_">
			<g id="XMLID_176_">
				<g id="XMLID_179_">
					<path id="XMLID_42_" class="st26" d="M284.3,103.2c0-1.3-1-2.3-2.3-2.3h-48.6c-1.3,0-2.3,1-2.3,2.3v12.7h53.3V103.2z"/>
					<path id="XMLID_41_" class="st26" d="M231,189.6c0,1.3,1,2.3,2.3,2.3h48.6c1.3,0,2.3-1,2.3-2.3v-16.6H231V189.6z"/>
					<rect id="XMLID_40_" x="231" y="115.9" class="st12" width="53.3" height="57.2"/>
				</g>
				<path id="XMLID_39_" class="st27" d="M262,182.9c0,2.1-1.7,3.9-3.9,3.9c-2.1,0-3.9-1.7-3.9-3.9c0-2.1,1.7-3.9,3.9-3.9
					C260.3,179,262,180.8,262,182.9z"/>
				<path id="XMLID_38_" class="st27" d="M268.2,107.8c0,0.8-0.6,1.4-1.4,1.4h-18.9c-0.8,0-1.4-0.6-1.4-1.4l0,0
					c0-0.8,0.6-1.4,1.4-1.4h18.9C267.6,106.3,268.2,107,268.2,107.8L268.2,107.8z"/>
			</g>
		</g>
	</g>
	<rect id="XMLID_37_" x="233.4" y="118" class="st22" width="48.1" height="16.4"/>
	<rect id="XMLID_36_" x="231" y="136.5" class="st11" width="53.3" height="19.9"/>
	<rect id="XMLID_35_" x="233.4" y="158.2" class="st23" width="22.6" height="12.7"/>
	<rect id="XMLID_34_" x="258.9" y="158.2" class="st23" width="22.6" height="12.7"/>
	<g id="XMLID_165_">
		<rect id="XMLID_33_" x="234.1" y="143.3" class="st24" width="13.8" height="1.6"/>
		<rect id="XMLID_32_" x="234.1" y="145.7" class="st25" width="16.3" height="0.8"/>
		<rect id="XMLID_31_" x="234.1" y="147.4" class="st25" width="10" height="0.8"/>
		<rect id="XMLID_30_" x="244.9" y="147.4" class="st25" width="4.5" height="0.8"/>
	</g>
	<rect id="XMLID_29_" x="276.7" y="144.3" class="st24" width="4.9" height="4.3"/>
</g>
<g id="XMLID_144_">
	<g id="XMLID_155_">
		<g id="XMLID_159_">
			<path id="XMLID_28_" class="st26" d="M20.7,182.7c0,2.7,2.2,4.9,4.9,4.9h66.7c2.7,0,4.9-2.2,4.9-4.9v-12.6H20.7V182.7z"/>
			<rect id="XMLID_27_" x="20.7" y="90" class="st12" width="76.5" height="80.1"/>
			<path id="XMLID_26_" class="st26" d="M97.2,81.9c0-2.7-2.2-4.9-4.9-4.9H25.6c-2.7,0-4.9,2.2-4.9,4.9V90h76.5V81.9z"/>
		</g>
		<g id="XMLID_157_">
			<path id="XMLID_25_" class="st27" d="M65.2,84.5H52.7c-0.6,0-1-0.4-1-1c0-0.6,0.4-1,1-1h12.6c0.5,0,1,0.4,1,1
				C66.2,84,65.8,84.5,65.2,84.5z"/>
		</g>
		<circle id="XMLID_24_" class="st27" cx="58.9" cy="178.1" r="3.4"/>
	</g>
	<rect id="XMLID_23_" x="24.2" y="92.3" class="st22" width="69.3" height="23.6"/>
	<rect id="XMLID_22_" x="20.7" y="119" class="st11" width="76.5" height="28.7"/>
	<rect id="XMLID_21_" x="24.2" y="150.3" class="st23" width="32.6" height="18.3"/>
	<rect id="XMLID_20_" x="60.9" y="150.3" class="st23" width="32.6" height="18.3"/>
	<g id="XMLID_146_">
		<rect id="XMLID_19_" x="25.1" y="128.8" class="st24" width="19.9" height="2.3"/>
		<rect id="XMLID_18_" x="25.1" y="132.2" class="st25" width="23.4" height="1.2"/>
		<rect id="XMLID_17_" x="25.1" y="134.8" class="st25" width="14.4" height="1.2"/>
		<rect id="XMLID_16_" x="40.7" y="134.8" class="st25" width="6.4" height="1.2"/>
	</g>
	<rect id="XMLID_15_" x="86.5" y="130.3" class="st24" width="7" height="6.1"/>
</g>
<g id="XMLID_141_">
	<rect id="XMLID_13_" x="97.2" y="131.4" class="st4" width="2.4" height="31.1"/>
	<rect id="XMLID_14_" x="97.2" y="125.2" class="st28" width="2.4" height="7"/>
</g>
<g id="XMLID_138_">
	<rect id="XMLID_12_" x="228.6" y="125.1" class="st28" width="2.4" height="7.1"/>
	<rect id="XMLID_11_" x="228.6" y="132.2" class="st4" width="2.4" height="30.2"/>
</g>
<g id="XMLID_135_">
	<path id="XMLID_10_" class="st29" d="M79.8,63.7H52.4c-3.8,0-6.9-3.1-6.9-6.9v-5.9c0-3.8,3.1-6.9,6.9-6.9h27.4
		c3.8,0,6.9,3.1,6.9,6.9v5.9C86.7,60.6,83.6,63.7,79.8,63.7z"/>
	<text id="XMLID_9_" transform="matrix(1 0 0 1 60.5547 58.0508)" class="st22 st30 st31">Ps</text>
</g>
<g id="XMLID_132_">
	<path id="XMLID_8_" class="st29" d="M319.2,105.3h-27.4c-3.8,0-6.9-3.1-6.9-6.9v-5.9c0-3.8,3.1-6.9,6.9-6.9h27.4
		c3.8,0,6.9,3.1,6.9,6.9v5.9C326.1,102.2,323,105.3,319.2,105.3z"/>
	<text id="XMLID_7_" transform="matrix(1 0 0 1 300.5137 99.6338)" class="st16 st30 st31">Id</text>
</g>
<g id="XMLID_128_">
	<path id="XMLID_6_" class="st29" d="M51.1,35.3H23.7c-3.8,0-6.9-3.1-6.9-6.9v-5.9c0-3.8,3.1-6.9,6.9-6.9h27.4
		c3.8,0,6.9,3.1,6.9,6.9v5.9C58,32.2,54.9,35.3,51.1,35.3z"/>
	<text id="XMLID_5_" transform="matrix(1 0 0 1 32.4443 29.6387)" class="st32 st30 st31">Ai</text>
</g>
<g id="XMLID_120_">
	<path id="XMLID_4_" class="st29" d="M278,74.1h-35.4c-3.6,0-6.6-3-6.6-6.6v-5.2c0-3.6,3-6.6,6.6-6.6H278c3.6,0,6.6,3,6.6,6.6v5.2
		C284.6,71.2,281.6,74.1,278,74.1z"/>
	<text id="XMLID_3_" transform="matrix(1 0 0 1 242.3779 68.6943)" class="st12 st30 st33">InVision</text>
</g>
<g id="XMLID_117_">
	<path id="XMLID_2_" class="st29" d="M306.6,38.3h-35.4c-3.6,0-6.6-3-6.6-6.6v-5.2c0-3.6,3-6.6,6.6-6.6h35.4c3.6,0,6.6,3,6.6,6.6
		v5.2C313.2,35.3,310.2,38.3,306.6,38.3z"/>
	<text id="XMLID_1_" transform="matrix(1 0 0 1 273.9961 32.6645)" class="st12 st30 st33">Sketch</text>
</g>
</svg>
