<?xml version="1.0" encoding="utf-8"?>
<!-- Generator: Adobe Illustrator 19.0.0, SVG Export Plug-In . SVG Version: 6.00 Build 0)  -->
<svg version="1.1" id="Layer_1" xmlns="http://www.w3.org/2000/svg" xmlns:xlink="http://www.w3.org/1999/xlink" x="0px" y="0px"
	 viewBox="-224 301 350 200" style="enable-background:new -224 301 350 200;" xml:space="preserve">
<style type="text/css">
	.st0{fill:#282C35;}
	.st1{fill:#3E434F;}
	.st2{fill:#E6E7E8;}
	.st3{fill:#F1F2F2;}
	.st4{fill:#E3E4E4;}
	.st5{fill:#D1D3D4;}
	.st6{fill:#393E49;}
	.st7{fill:#27576D;}
	.st8{fill:#2B5D74;}
	.st9{fill:#2F647D;}
	.st10{fill:#403F44;}
	.st11{opacity:0.3;fill:#FF876C;enable-background:new    ;}
	.st12{fill:#FFFFFF;}
	.st13{fill:#353439;}
	.st14{fill:#3E3D42;}
	.st15{fill:#FBFBFB;}
	.st16{fill:#E59ECF;}
	.st17{fill:#DB9ACA;}
	.st18{fill:#CE91C1;}
	.st19{fill:#F3796A;}
	.st20{fill:#F37368;}
	.st21{fill:#C2C4C5;}
	.st22{fill:#C3EBF3;}
	.st23{opacity:0.3;fill:#A7A9AC;enable-background:new    ;}
	.st24{opacity:0.2;fill:#FF876C;enable-background:new    ;}
	.st25{opacity:0.2;fill:#C85B55;enable-background:new    ;}
	.st26{fill:#343943;}
	.st27{fill:#262A33;}
	.st28{display:none;}
	.st29{display:inline;fill:#C3EBF3;}
	.st30{display:inline;opacity:0.3;fill:#FF876C;enable-background:new    ;}
	.st31{display:inline;opacity:0.3;fill:#A7A9AC;enable-background:new    ;}
	.st32{display:inline;}
	.st33{display:inline;opacity:0.2;fill:#FF876C;enable-background:new    ;}
	.st34{fill:#1F232C;}
	.st35{fill:#40A58C;}
	.st36{font-family:'OpenSans-Bold';}
	.st37{font-size:10.9207px;}
	.st38{fill:#FF876C;}
	.st39{font-size:9.1964px;}
</style>
<g id="XMLID_277_">
	<g id="XMLID_280_">
		<path id="XMLID_114_" class="st0" d="M26.2,341c0-3.2-2.2-5.7-5-5.7h-157.6c-2.8,0-5,2.6-5,5.7v92.4H26.2L26.2,341L26.2,341z"/>
		<path id="XMLID_113_" class="st1" d="M15.1,349.7c0-2.6-1.9-4.7-4.3-4.7h-136.9c-2.4,0-4.3,2.1-4.3,4.7v76.5H15.1V349.7z"/>
		<polygon id="XMLID_112_" class="st2" points="-35.2,458.1 -39.4,458.1 -75,458.1 -79.2,458.1 -81.4,482 -75,482 -39.4,482 
			-33,482 		"/>
		<path id="XMLID_111_" class="st3" d="M-141.4,433.2v25.5c0,2.6,2.2,4.7,5,4.7H21.2c2.8,0,5-2.1,5-4.7v-25.5H-141.4z"/>
		<polygon id="XMLID_110_" class="st4" points="-35,466.2 -79.4,466.2 -79.2,463.4 -35.2,463.4 		"/>
		<g id="XMLID_282_">
			<path id="XMLID_109_" class="st5" d="M-26.9,486c0.2-0.4,0.3-0.8,0.3-1.3c0-1.7-1.4-3.1-3.1-3.1h-55.7c-1.7,0-3.1,1.4-3.1,3.1
				c0,0.4,0.1,0.9,0.3,1.3H-26.9z"/>
		</g>
		<path id="XMLID_108_" class="st2" d="M-50.5,448.3c0,3.7-3,6.7-6.7,6.7s-6.7-3-6.7-6.7c0-3.7,3-6.7,6.7-6.7
			S-50.5,444.6-50.5,448.3z"/>
	</g>
	<g id="XMLID_278_">
		<path id="XMLID_107_" class="st6" d="M15.1,350.8v-1.2c0-2.6-1.9-4.7-4.3-4.7h-136.9c-2.4,0-4.3,2.1-4.3,4.7v75.6
			C-111.1,389.1-55.5,360.7,15.1,350.8z"/>
	</g>
</g>
<g id="XMLID_226_">
	<g id="XMLID_231_">
		<g id="XMLID_264_">
			<g id="XMLID_267_">
				<g id="XMLID_273_">
					<polygon id="XMLID_106_" class="st7" points="73.1,437.5 81.3,483.1 80,483.3 71.8,437.7 					"/>
					<polygon id="XMLID_105_" class="st8" points="71.8,437.7 80,483.3 78.7,483.5 70.5,437.9 					"/>
					<polygon id="XMLID_104_" class="st9" points="69.2,438.1 70.5,437.9 78.7,483.5 77.4,483.7 					"/>
				</g>
				<g id="XMLID_270_">
					<path id="XMLID_103_" class="st10" d="M69.4,432.8l0.2-3.4l1.4,3.2C70.5,432.9,70,433,69.4,432.8z"/>
					<path id="XMLID_102_" class="st11" d="M71,432.6l2.1,4.9l-4,0.6l0.3-5.3C70,433,70.5,432.9,71,432.6z"/>
				</g>
				<polygon id="XMLID_101_" class="st12" points="77.6,485 81.6,484.4 81.3,483.1 77.4,483.7 				"/>
				<polygon id="XMLID_100_" class="st13" points="78.4,489.6 82.4,489 81.6,484.4 77.6,485 				"/>
			</g>
			<polygon id="XMLID_99_" class="st14" points="82.4,489 81.6,484.4 80.3,484.6 81.2,489.2 			"/>
			<polygon id="XMLID_98_" class="st15" points="81.3,483.1 81.6,484.4 80.3,484.6 80.1,483.3 			"/>
		</g>
		<g id="XMLID_245_">
			<g id="XMLID_248_">
				<g id="XMLID_254_">
					<polygon id="XMLID_97_" class="st16" points="80.9,437.4 77,483.5 75.7,483.4 79.6,437.4 					"/>
					<polygon id="XMLID_96_" class="st17" points="79.6,437.4 75.7,483.4 74.3,483.3 78.2,437.3 					"/>
					<polygon id="XMLID_95_" class="st18" points="76.9,437.2 78.2,437.3 74.3,483.3 73,483.2 					"/>
				</g>
				<g id="XMLID_251_">
					<path id="XMLID_94_" class="st10" d="M78.6,432.1l1.1-3.3l0.5,3.4C79.6,432.4,79.1,432.4,78.6,432.1z"/>
					<path id="XMLID_93_" class="st11" d="M80.2,432.2l0.8,5.2l-4-0.3l1.7-5.1C79.1,432.4,79.6,432.4,80.2,432.2z"/>
				</g>
				<polygon id="XMLID_92_" class="st12" points="72.9,484.5 76.9,484.8 77,483.5 73,483.2 				"/>
				<polygon id="XMLID_91_" class="st13" points="72.4,489.2 76.5,489.5 76.9,484.8 72.9,484.5 				"/>
			</g>
			<polygon id="XMLID_90_" class="st14" points="76.5,489.5 76.9,484.8 75.6,484.7 75.2,489.4 			"/>
			<polygon id="XMLID_89_" class="st15" points="77,483.5 76.9,484.8 75.6,484.7 75.8,483.4 			"/>
		</g>
		<g id="XMLID_232_">
			<g id="XMLID_235_">
				<g id="XMLID_241_">
					<polygon id="XMLID_88_" class="st19" points="67.4,436.7 76.7,482.1 75.4,482.3 66.1,436.9 					"/>
					<polygon id="XMLID_87_" class="st19" points="66.1,436.9 75.4,482.3 74.1,482.6 64.7,437.1 					"/>
					<polygon id="XMLID_86_" class="st20" points="63.4,437.3 64.7,437.1 74.1,482.6 72.8,482.8 					"/>
				</g>
				<g id="XMLID_238_">
					<path id="XMLID_85_" class="st10" d="M63.6,432l0.1-3.4l1.4,3.1C64.7,432.1,64.2,432.2,63.6,432z"/>
					<path id="XMLID_84_" class="st11" d="M65.2,431.8l2.3,4.9l-4,0.6l0.2-5.3C64.2,432.2,64.7,432.1,65.2,431.8z"/>
				</g>
				<polygon id="XMLID_83_" class="st12" points="73,484 77,483.4 76.7,482.1 72.8,482.8 				"/>
				<polygon id="XMLID_82_" class="st13" points="74,488.6 77.9,488 77,483.4 73,484 				"/>
			</g>
			<polygon id="XMLID_81_" class="st14" points="77.9,488 77,483.4 75.8,483.6 76.7,488.2 			"/>
			<polygon id="XMLID_80_" class="st15" points="76.7,482.1 77,483.4 75.8,483.6 75.5,482.3 			"/>
		</g>
	</g>
	<g id="XMLID_227_">
		<rect id="XMLID_79_" x="56.8" y="460.1" class="st3" width="34.1" height="4.4"/>
		<rect id="XMLID_78_" x="59.8" y="464.5" class="st2" width="28.1" height="27.8"/>
		<rect id="XMLID_77_" x="59.8" y="464.5" class="st5" width="28.1" height="1.3"/>
	</g>
</g>
<g id="XMLID_183_">
	<g id="XMLID_211_">
		<g id="XMLID_212_">
			<g id="XMLID_213_">
				<g id="XMLID_222_">
					<rect id="XMLID_76_" x="-115.5" y="329.8" class="st12" width="114.1" height="96.3"/>
					<path id="XMLID_75_" class="st5" d="M-1.4,321.8c0-3.2-2.6-5.7-5.7-5.7h-102.7c-3.2,0-5.7,2.6-5.7,5.7v0.2H-1.4V321.8z"/>
					<rect id="XMLID_74_" x="-115.5" y="322" class="st2" width="114.1" height="7.8"/>
				</g>
				<path id="XMLID_73_" class="st12" d="M-102.6,327.3c0,0.3,0.3,0.5,0.7,0.5h86.8c0.4,0,0.7-0.2,0.7-0.5v-2.7
					c0-0.3-0.3-0.5-0.7-0.5h-86.8c-0.4,0-0.7,0.2-0.7,0.5C-102.6,324.6-102.6,327.3-102.6,327.3z"/>
				<circle id="XMLID_72_" class="st21" cx="-111.3" cy="319" r="0.8"/>
				<circle id="XMLID_71_" class="st21" cx="-109" cy="319" r="0.8"/>
				<circle id="XMLID_70_" class="st21" cx="-106.6" cy="319" r="0.8"/>
				<path id="XMLID_69_" class="st5" d="M-113,326.6c0,0.4,0.4,0.8,0.8,0.8h1.7c0.4,0,0.8-0.4,0.8-0.8v-1.3c0-0.4-0.4-0.8-0.8-0.8
					h-1.7c-0.4,0-0.8,0.4-0.8,0.8V326.6z"/>
				<path id="XMLID_68_" class="st5" d="M-108,326.5c0,0.4,0.4,0.8,0.8,0.8h1.7c0.4,0,0.8-0.4,0.8-0.8v-1.3c0-0.4-0.4-0.8-0.8-0.8
					h-1.7c-0.4,0-0.8,0.4-0.8,0.8V326.5z"/>
				<path id="XMLID_67_" class="st5" d="M-12.3,326.6c0,0.4,0.4,0.8,0.8,0.8h1.7c0.4,0,0.8-0.4,0.8-0.8v-1.3c0-0.4-0.4-0.8-0.8-0.8
					h-1.7c-0.4,0-0.8,0.4-0.8,0.8V326.6z"/>
				<path id="XMLID_66_" class="st5" d="M-7.5,326.6c0,0.4,0.4,0.8,0.8,0.8H-5c0.4,0,0.8-0.4,0.8-0.8v-1.3c0-0.4-0.4-0.8-0.8-0.8
					h-1.7c-0.4,0-0.8,0.4-0.8,0.8V326.6z"/>
			</g>
		</g>
	</g>
	<rect id="XMLID_65_" x="-111.3" y="333.4" class="st22" width="72.8" height="24.3"/>
	<rect id="XMLID_64_" x="-36.4" y="333.4" class="st23" width="30.6" height="24.3"/>
	<rect id="XMLID_63_" x="-115.5" y="360.4" class="st11" width="114.1" height="20.4"/>
	<rect id="XMLID_62_" x="-110.5" y="384.3" class="st22" width="32.7" height="21.7"/>
	<rect id="XMLID_61_" x="-74.6" y="384.3" class="st22" width="32.7" height="21.7"/>
	<rect id="XMLID_60_" x="-38.5" y="384.3" class="st22" width="32.7" height="21.7"/>
	<g id="XMLID_200_">
		<rect id="XMLID_59_" x="-110.5" y="409.2" class="st23" width="24.5" height="3.6"/>
		<rect id="XMLID_58_" x="-110.5" y="414.5" class="st3" width="28.9" height="1.9"/>
		<rect id="XMLID_57_" x="-110.5" y="418.5" class="st3" width="17.7" height="1.9"/>
		<rect id="XMLID_56_" x="-91.3" y="418.5" class="st3" width="7.9" height="1.9"/>
	</g>
	<g id="XMLID_195_">
		<rect id="XMLID_55_" x="-110.3" y="367.4" class="st24" width="17.5" height="2"/>
		<rect id="XMLID_54_" x="-110.3" y="370.4" class="st25" width="20.6" height="1"/>
		<rect id="XMLID_53_" x="-110.3" y="372.7" class="st25" width="12.6" height="1"/>
		<rect id="XMLID_52_" x="-96.6" y="372.7" class="st25" width="5.7" height="1"/>
	</g>
	<g id="XMLID_190_">
		<rect id="XMLID_51_" x="-74.6" y="408.9" class="st23" width="24.5" height="3.6"/>
		<rect id="XMLID_50_" x="-74.6" y="414.2" class="st3" width="28.9" height="1.9"/>
		<rect id="XMLID_49_" x="-74.6" y="418.3" class="st3" width="17.7" height="1.9"/>
		<rect id="XMLID_48_" x="-55.5" y="418.3" class="st3" width="7.9" height="1.9"/>
	</g>
	<g id="XMLID_185_">
		<rect id="XMLID_47_" x="-38.5" y="408.9" class="st23" width="24.5" height="3.6"/>
		<rect id="XMLID_46_" x="-38.5" y="414.2" class="st3" width="28.9" height="1.9"/>
		<rect id="XMLID_45_" x="-38.5" y="418.3" class="st3" width="17.7" height="1.9"/>
		<rect id="XMLID_44_" x="-19.3" y="418.3" class="st3" width="7.9" height="1.9"/>
	</g>
	<rect id="XMLID_43_" x="-10.7" y="368.6" class="st24" width="4.9" height="4.3"/>
</g>
<g id="XMLID_163_">
	<g id="XMLID_174_">
		<g id="XMLID_175_">
			<g id="XMLID_176_">
				<g id="XMLID_179_">
					<path id="XMLID_42_" class="st26" d="M60.3,404.2c0-1.3-1-2.3-2.3-2.3H9.4c-1.3,0-2.3,1-2.3,2.3v12.7h53.3v-12.7H60.3z"/>
					<path id="XMLID_41_" class="st26" d="M7,490.6c0,1.3,1,2.3,2.3,2.3h48.6c1.3,0,2.3-1,2.3-2.3V474H7V490.6z"/>
					<rect id="XMLID_40_" x="7" y="416.9" class="st12" width="53.3" height="57.2"/>
				</g>
				<path id="XMLID_39_" class="st27" d="M38,483.9c0,2.1-1.7,3.9-3.9,3.9c-2.1,0-3.9-1.7-3.9-3.9c0-2.1,1.7-3.9,3.9-3.9
					C36.3,480,38,481.8,38,483.9z"/>
				<path id="XMLID_38_" class="st27" d="M44.2,408.8c0,0.8-0.6,1.4-1.4,1.4H23.9c-0.8,0-1.4-0.6-1.4-1.4l0,0c0-0.8,0.6-1.4,1.4-1.4
					h18.9C43.6,407.3,44.2,408,44.2,408.8L44.2,408.8z"/>
			</g>
		</g>
	</g>
	<rect id="XMLID_37_" x="9.4" y="419" class="st22" width="48.1" height="16.4"/>
	<rect id="XMLID_36_" x="7" y="437.5" class="st11" width="53.3" height="19.9"/>
	<rect id="XMLID_35_" x="9.4" y="459.2" class="st23" width="22.6" height="12.7"/>
	<rect id="XMLID_34_" x="34.9" y="459.2" class="st23" width="22.6" height="12.7"/>
	<g id="XMLID_165_">
		<rect id="XMLID_33_" x="10.1" y="444.3" class="st24" width="13.8" height="1.6"/>
		<rect id="XMLID_32_" x="10.1" y="446.7" class="st25" width="16.3" height="0.8"/>
		<rect id="XMLID_31_" x="10.1" y="448.4" class="st25" width="10" height="0.8"/>
		<rect id="XMLID_30_" x="20.9" y="448.4" class="st25" width="4.5" height="0.8"/>
	</g>
	<rect id="XMLID_29_" x="52.7" y="445.3" class="st24" width="4.9" height="4.3"/>
</g>
<g id="XMLID_144_">
	<g class="st28">
		<rect id="XMLID_124_" x="-199.9" y="470" class="st29" width="69.3" height="23.6"/>
		<rect id="XMLID_123_" x="-203.4" y="496.8" class="st30" width="76.5" height="28.7"/>
		<rect id="XMLID_122_" x="-199.9" y="528" class="st31" width="32.6" height="18.3"/>
		<rect id="XMLID_121_" x="-163.2" y="528" class="st31" width="32.6" height="18.3"/>
		<g id="XMLID_116_" class="st32">
			<rect id="XMLID_120_" x="-199.1" y="506.5" class="st24" width="19.9" height="2.3"/>
			<rect id="XMLID_119_" x="-199.1" y="510" class="st25" width="23.4" height="1.2"/>
			<rect id="XMLID_118_" x="-199.1" y="512.5" class="st25" width="14.4" height="1.2"/>
			<rect id="XMLID_117_" x="-183.4" y="512.5" class="st25" width="6.4" height="1.2"/>
		</g>
		<rect id="XMLID_115_" x="-137.6" y="508" class="st33" width="7" height="6.1"/>
	</g>
	<g id="XMLID_155_">
		<g id="XMLID_159_">
			<path id="XMLID_28_" class="st26" d="M-203.3,483.7c0,2.7,2.2,4.9,4.9,4.9h66.7c2.7,0,4.9-2.2,4.9-4.9v-12.6h-76.5V483.7z"/>
			<rect id="XMLID_27_" x="-203.3" y="391" class="st12" width="76.5" height="80.1"/>
			<path id="XMLID_26_" class="st26" d="M-126.8,382.9c0-2.7-2.2-4.9-4.9-4.9h-66.7c-2.7,0-4.9,2.2-4.9,4.9v8.1h76.5V382.9z"/>
		</g>
		<g id="XMLID_157_">
			<path id="XMLID_25_" class="st27" d="M-158.8,385.5h-12.5c-0.6,0-1-0.4-1-1s0.4-1,1-1h12.6c0.5,0,1,0.4,1,1
				C-157.8,385-158.2,385.5-158.8,385.5z"/>
		</g>
		<circle id="XMLID_24_" class="st27" cx="-165.1" cy="479.1" r="3.4"/>
	</g>
	<rect id="XMLID_23_" x="-199.8" y="393.3" class="st22" width="69.3" height="23.6"/>
	<rect id="XMLID_22_" x="-203.3" y="420" class="st11" width="76.5" height="28.7"/>
	<rect id="XMLID_21_" x="-199.8" y="451.3" class="st23" width="32.6" height="18.3"/>
	<rect id="XMLID_20_" x="-163.1" y="451.3" class="st23" width="32.6" height="18.3"/>
	<g id="XMLID_146_">
		<rect id="XMLID_19_" x="-198.9" y="429.8" class="st24" width="19.9" height="2.3"/>
		<rect id="XMLID_18_" x="-198.9" y="433.2" class="st25" width="23.4" height="1.2"/>
		<rect id="XMLID_17_" x="-198.9" y="435.8" class="st25" width="14.4" height="1.2"/>
		<rect id="XMLID_16_" x="-183.3" y="435.8" class="st25" width="6.4" height="1.2"/>
	</g>
	<rect id="XMLID_15_" x="-137.5" y="431.3" class="st24" width="7" height="6.1"/>
</g>
<g id="XMLID_141_">
	<rect id="XMLID_13_" x="-126.8" y="432.4" class="st4" width="2.4" height="31.1"/>
	<rect id="XMLID_14_" x="-126.8" y="426.2" class="st34" width="2.4" height="7"/>
</g>
<g id="XMLID_138_">
	<rect id="XMLID_12_" x="4.6" y="426.1" class="st34" width="2.4" height="7.1"/>
	<rect id="XMLID_11_" x="4.6" y="433.2" class="st4" width="2.4" height="30.2"/>
</g>
<g id="Ps">
	<path id="XMLID_10_" class="st35" d="M-144.2,364.7h-27.4c-3.8,0-6.9-3.1-6.9-6.9v-5.9c0-3.8,3.1-6.9,6.9-6.9h27.4
		c3.8,0,6.9,3.1,6.9,6.9v5.9C-137.3,361.6-140.4,364.7-144.2,364.7z"/>
	<text id="XMLID_9_" transform="matrix(1 0 0 1 -163.4453 359.0508)" class="st22 st36 st37">Ps</text>
</g>
<g id="Id">
	<path id="XMLID_8_" class="st35" d="M95.2,406.3H67.8c-3.8,0-6.9-3.1-6.9-6.9v-5.9c0-3.8,3.1-6.9,6.9-6.9h27.4
		c3.8,0,6.9,3.1,6.9,6.9v5.9C102.1,403.2,99,406.3,95.2,406.3z"/>
	<text id="XMLID_7_" transform="matrix(1 0 0 1 76.5137 400.6338)" class="st16 st36 st37">Id</text>
</g>
<g id="AI">
	<path id="XMLID_6_" class="st35" d="M-172.9,336.3h-27.4c-3.8,0-6.9-3.1-6.9-6.9v-5.9c0-3.8,3.1-6.9,6.9-6.9h27.4
		c3.8,0,6.9,3.1,6.9,6.9v5.9C-166,333.2-169.1,336.3-172.9,336.3z"/>
	<text id="XMLID_5_" transform="matrix(1 0 0 1 -191.5557 330.6387)" class="st38 st36 st37">Ai</text>
</g>
<g id="InVision">
	<path id="XMLID_4_" class="st35" d="M54,375.1H18.6c-3.6,0-6.6-3-6.6-6.6v-5.2c0-3.6,3-6.6,6.6-6.6H54c3.6,0,6.6,3,6.6,6.6v5.2
		C60.6,372.2,57.6,375.1,54,375.1z"/>
	<text id="XMLID_3_" transform="matrix(1 0 0 1 18.3779 369.6943)" class="st12 st36 st39">InVision</text>
</g>
<g id="Sketch">
	<path id="XMLID_2_" class="st35" d="M82.6,339.3H47.2c-3.6,0-6.6-3-6.6-6.6v-5.2c0-3.6,3-6.6,6.6-6.6h35.4c3.6,0,6.6,3,6.6,6.6v5.2
		C89.2,336.3,86.2,339.3,82.6,339.3z"/>
	<text id="XMLID_1_" transform="matrix(1 0 0 1 49.9961 333.6645)" class="st12 st36 st39">Sketch</text>
</g>
</svg>
