<?xml version="1.0" encoding="utf-8"?>
<!-- Generator: Adobe Illustrator 19.0.0, SVG Export Plug-In . SVG Version: 6.00 Build 0)  -->
<svg version="1.1" id="Layer_1" xmlns="http://www.w3.org/2000/svg" xmlns:xlink="http://www.w3.org/1999/xlink" x="0px" y="0px"
	 viewBox="0 0 350 200" style="enable-background:new 0 0 350 200;" xml:space="preserve">
<style type="text/css">
	.st0{fill:#FF876C;}
	.st1{fill:#393E49;}
	.st2{font-family:'OpenSans-Bold';}
	.st3{font-size:9.6528px;}
	.st4{fill:#282C35;}
	.st5{fill:#3E434F;}
	.st6{fill:#E6E7E8;}
	.st7{fill:#C4C6C8;}
	.st8{fill:#2A2E37;}
	.st9{fill:#323640;}
	.st10{fill:#2B2F38;}
	.st11{fill:#00B5AC;}
	.st12{fill:#2D313B;}
	.st13{fill:#30343E;}
	.st14{opacity:0.3;fill:#FF876C;}
	.st15{fill:#079187;}
	.st16{fill:#FFFFFF;}
	.st17{clip-path:url(#XMLID_170_);}
	.st18{fill:#2E323C;}
	.st19{opacity:0.1;fill:#FFFFFF;}
	.st20{fill:#F1F2F2;}
	.st21{fill:#D1D3D4;}
	.st22{fill:#84B3F7;}
	.st23{fill:#40A58C;}
</style>
<g id="XMLID_168_">
	<g id="XMLID_452_">
		<path id="XMLID_457_" class="st0" d="M124.3,25.2c-0.9,0.9-2,1.3-3.2,1.3c-3.1,0-4.5-2.2-4.5-4.3c0-2.2,1.4-4.4,4.5-4.4
			c1.1,0,2.2,0.4,3.1,1.3l-1.1,1c-0.6-0.5-1.3-0.8-2-0.8c-2,0-2.9,1.5-2.9,2.9c0,1.4,0.8,2.9,2.9,2.9c0.7,0,1.6-0.3,2.1-0.9
			L124.3,25.2z"/>
		<path id="XMLID_455_" class="st0" d="M127.1,21.4v-1.8h1.5v1.8h1.8v1.3h-1.8v1.8h-1.5v-1.8h-1.8v-1.3H127.1z"/>
		<path id="XMLID_453_" class="st0" d="M133.6,21.4v-1.8h1.5v1.8h1.8v1.3h-1.8v1.8h-1.5v-1.8h-1.8v-1.3H133.6z"/>
	</g>
	<g id="XMLID_449_">
		<path id="XMLID_163_" class="st1" d="M87.7,115.6H58.9c-4,0-7.2-3.3-7.2-7.2v-6.2c0-4,3.3-7.2,7.2-7.2h28.7c4,0,7.2,3.3,7.2,7.2
			v6.2C94.9,112.4,91.6,115.6,87.7,115.6z"/>
		<text id="XMLID_162_" transform="matrix(1 0 0 1 64.1721 109.6891)" class="st0 st2 st3">CSS</text>
	</g>
	<g id="XMLID_437_">
		<g id="XMLID_440_">
			<g id="XMLID_441_">
				<g id="XMLID_442_">
					<g id="XMLID_447_">
						<path id="XMLID_161_" class="st4" d="M246.9,142.8V60.4c0-5.5-4.5-10-10-10H95.1c-5.5,0-10,4.5-10,10v82.4
							c0,0.1,0,17.5,0,17.7h161.8C246.8,160.3,246.9,142.9,246.9,142.8z"/>
					</g>
					<rect id="XMLID_160_" x="96.6" y="61.5" class="st5" width="138.1" height="89.1"/>
					<g id="XMLID_444_">
						<path id="XMLID_159_" class="st6" d="M71.3,162.6c0,6.5,5.2,11.7,11.7,11.7h165.8c6.5,0,11.7-5.2,11.7-11.7v-2.2H71.3V162.6z"
							/>
					</g>
					<path id="XMLID_158_" class="st7" d="M177.9,167.8c0,0.7-0.7,1.3-1.5,1.3h-21.6c-0.8,0-1.5-0.6-1.5-1.3l0,0
						c0-0.7,0.7-1.2,1.5-1.2h21.6C177.2,166.6,177.9,167.1,177.9,167.8L177.9,167.8z"/>
				</g>
			</g>
		</g>
		<g id="XMLID_438_">
			<path id="XMLID_157_" class="st1" d="M234.6,61.7v-0.2H96.6v77.4C116.1,100.4,168.8,70.7,234.6,61.7z"/>
		</g>
	</g>
	<g id="XMLID_355_">
		<g id="XMLID_429_">
			<g id="XMLID_434_">
				<path id="XMLID_156_" class="st8" d="M314.2,11.3c0,0-9.1,0.8-9.1,6.4h17.6C322.7,17.7,323.1,11.3,314.2,11.3z"/>
				<path id="XMLID_155_" class="st9" d="M314.8,11.3c0,0-89.1,0-99.4,0c-10.3,0-9.8,6.4-9.8,6.4h100.1
					C305.6,12.1,314.8,11.3,314.8,11.3z"/>
			</g>
			<rect id="XMLID_154_" x="205.3" y="17.7" class="st9" width="99.5" height="142.4"/>
			<g id="XMLID_430_">
				<path id="XMLID_153_" class="st9" d="M195.6,166.5c0,0,89.1,0,99.4,0c10.3,0,9.8-6.4,9.8-6.4H204.7
					C204.7,165.7,195.6,166.5,195.6,166.5z"/>
				<path id="XMLID_152_" class="st8" d="M196.2,166.5c0,0,9.1-0.8,9.1-6.4h-17.6C187.7,160.1,187.3,166.5,196.2,166.5z"/>
			</g>
		</g>
		<g id="XMLID_356_">
			<g id="XMLID_427_">
				<path id="XMLID_151_" class="st0" d="M272,140.4h-9.2c-0.5,0-0.9-0.3-0.9-0.7c0-0.4,0.4-0.7,0.9-0.7h9.2c0.5,0,0.9,0.3,0.9,0.7
					C272.9,140.1,272.5,140.4,272,140.4z"/>
			</g>
			<g id="XMLID_425_">
				<path id="XMLID_150_" class="st10" d="M287.5,140.4h-10.4c-0.5,0-0.9-0.3-0.9-0.7c0-0.4,0.4-0.7,0.9-0.7h10.4
					c0.5,0,0.9,0.3,0.9,0.7C288.4,140.1,288,140.4,287.5,140.4z"/>
			</g>
			<g id="XMLID_423_">
				<path id="XMLID_149_" class="st10" d="M298.1,146.6h-35.3c-0.5,0-0.9-0.3-0.9-0.7c0-0.4,0.4-0.7,0.9-0.7h35.3
					c0.5,0,0.9,0.3,0.9,0.7C299,146.2,298.6,146.6,298.1,146.6z"/>
			</g>
			<g id="XMLID_421_">
				<path id="XMLID_148_" class="st11" d="M280.5,153.1h-17.7c-0.5,0-0.9-0.3-0.9-0.7c0-0.4,0.4-0.7,0.9-0.7h17.7
					c0.5,0,0.9,0.3,0.9,0.7C281.3,152.8,280.9,153.1,280.5,153.1z"/>
			</g>
			<g id="XMLID_419_">
				<path id="XMLID_147_" class="st0" d="M291.1,153.1h-5.3c-0.5,0-0.9-0.3-0.9-0.7c0-0.4,0.4-0.7,0.9-0.7h5.3
					c0.5,0,0.9,0.3,0.9,0.7C292,152.8,291.6,153.1,291.1,153.1z"/>
			</g>
			<g id="XMLID_417_">
				<path id="XMLID_146_" class="st10" d="M242.2,152.2h9.2c0.5,0,0.9,0.3,0.9,0.7c0,0.4-0.4,0.7-0.9,0.7h-9.2
					c-0.5,0-0.9-0.3-0.9-0.7C241.3,152.5,241.7,152.2,242.2,152.2z"/>
			</g>
			<g id="XMLID_415_">
				<path id="XMLID_145_" class="st0" d="M226.7,152.2h10.4c0.5,0,0.9,0.3,0.9,0.7c0,0.4-0.4,0.7-0.9,0.7h-10.4
					c-0.5,0-0.9-0.3-0.9-0.7C225.8,152.5,226.2,152.2,226.7,152.2z"/>
			</g>
			<g id="XMLID_413_">
				<path id="XMLID_144_" class="st11" d="M216.1,146h35.3c0.5,0,0.9,0.3,0.9,0.7c0,0.4-0.4,0.7-0.9,0.7h-35.3
					c-0.5,0-0.9-0.3-0.9-0.7C215.2,146.4,215.6,146,216.1,146z"/>
			</g>
			<g id="XMLID_411_">
				<path id="XMLID_143_" class="st10" d="M233.7,139.5h17.7c0.5,0,0.9,0.3,0.9,0.7c0,0.4-0.4,0.7-0.9,0.7h-17.7
					c-0.5,0-0.9-0.3-0.9-0.7C232.8,139.8,233.2,139.5,233.7,139.5z"/>
			</g>
			<g id="XMLID_409_">
				<path id="XMLID_142_" class="st10" d="M223.1,139.5h5.3c0.5,0,0.9,0.3,0.9,0.7c0,0.4-0.4,0.7-0.9,0.7h-5.3
					c-0.5,0-0.9-0.3-0.9-0.7C222.2,139.8,222.6,139.5,223.1,139.5z"/>
			</g>
			<g id="XMLID_407_">
				<path id="XMLID_141_" class="st0" d="M248.6,100.5h-29.2c-0.5,0-0.9-0.3-0.9-0.8c0-0.4,0.4-0.7,0.9-0.7h29.2
					c0.5,0,0.9,0.3,0.9,0.7C249.4,100.2,249,100.5,248.6,100.5z"/>
			</g>
			<g id="XMLID_405_">
				<path id="XMLID_140_" class="st10" d="M291.6,100.5h-38.3c-0.5,0-0.9-0.3-0.9-0.8c0-0.4,0.4-0.7,0.9-0.7h38.3
					c0.5,0,0.9,0.3,0.9,0.7C292.5,100.2,292.1,100.5,291.6,100.5z"/>
			</g>
			<g id="XMLID_403_">
				<path id="XMLID_139_" class="st10" d="M267.4,109.3H212c-0.5,0-0.9-0.3-0.9-0.7c0-0.4,0.4-0.7,0.9-0.7h55.4
					c0.5,0,0.9,0.3,0.9,0.7C268.3,109,267.9,109.3,267.4,109.3z"/>
			</g>
			<g id="XMLID_401_">
				<path id="XMLID_138_" class="st11" d="M298.1,109.3h-25.7c-0.5,0-0.9-0.3-0.9-0.7c0-0.4,0.4-0.7,0.9-0.7h25.7
					c0.5,0,0.9,0.3,0.9,0.7C299,109,298.6,109.3,298.1,109.3z"/>
			</g>
			<g id="XMLID_399_">
				<path id="XMLID_137_" class="st10" d="M232.8,119.1H212c-0.5,0-0.9-0.3-0.9-0.7c0-0.4,0.4-0.7,0.9-0.7h20.8
					c0.5,0,0.9,0.3,0.9,0.7C233.7,118.8,233.3,119.1,232.8,119.1z"/>
			</g>
			<g id="XMLID_397_">
				<path id="XMLID_136_" class="st0" d="M277.8,119.1h-39.2c-0.5,0-0.9-0.3-0.9-0.7c0-0.4,0.4-0.7,0.9-0.7h39.2
					c0.5,0,0.9,0.3,0.9,0.7C278.7,118.8,278.3,119.1,277.8,119.1z"/>
			</g>
			<g id="XMLID_395_">
				<path id="XMLID_135_" class="st10" d="M290.1,119.1h-7.5c-0.5,0-0.9-0.3-0.9-0.7c0-0.4,0.4-0.7,0.9-0.7h7.5
					c0.5,0,0.9,0.3,0.9,0.7C291,118.8,290.6,119.1,290.1,119.1z"/>
			</g>
			<g id="XMLID_393_">
				<path id="XMLID_134_" class="st0" d="M248.6,27.9h-29.2c-0.5,0-0.9-0.3-0.9-0.7c0-0.4,0.4-0.7,0.9-0.7h29.2
					c0.5,0,0.9,0.3,0.9,0.7C249.4,27.5,249,27.9,248.6,27.9z"/>
			</g>
			<g id="XMLID_391_">
				<path id="XMLID_133_" class="st10" d="M291.6,27.9h-38.3c-0.5,0-0.9-0.3-0.9-0.7c0-0.4,0.4-0.7,0.9-0.7h38.3
					c0.5,0,0.9,0.3,0.9,0.7C292.5,27.5,292.1,27.9,291.6,27.9z"/>
			</g>
			<g id="XMLID_389_">
				<path id="XMLID_132_" class="st10" d="M267.4,36.7H212c-0.5,0-0.9-0.3-0.9-0.7c0-0.4,0.4-0.7,0.9-0.7h55.4
					c0.5,0,0.9,0.3,0.9,0.7C268.3,36.3,267.9,36.7,267.4,36.7z"/>
			</g>
			<g id="XMLID_387_">
				<path id="XMLID_131_" class="st11" d="M298.1,36.7h-25.7c-0.5,0-0.9-0.3-0.9-0.7c0-0.4,0.4-0.7,0.9-0.7h25.7
					c0.5,0,0.9,0.3,0.9,0.7C299,36.3,298.6,36.7,298.1,36.7z"/>
			</g>
			<g id="XMLID_385_">
				<path id="XMLID_130_" class="st10" d="M232.8,46.5H212c-0.5,0-0.9-0.3-0.9-0.7c0-0.4,0.4-0.7,0.9-0.7h20.8
					c0.5,0,0.9,0.3,0.9,0.7C233.7,46.2,233.3,46.5,232.8,46.5z"/>
			</g>
			<g id="XMLID_383_">
				<path id="XMLID_129_" class="st0" d="M277.8,46.5h-39.2c-0.5,0-0.9-0.3-0.9-0.7c0-0.4,0.4-0.7,0.9-0.7h39.2
					c0.5,0,0.9,0.3,0.9,0.7C278.7,46.2,278.3,46.5,277.8,46.5z"/>
			</g>
			<g id="XMLID_381_">
				<path id="XMLID_128_" class="st10" d="M290.1,46.5h-7.5c-0.5,0-0.9-0.3-0.9-0.7c0-0.4,0.4-0.7,0.9-0.7h7.5
					c0.5,0,0.9,0.3,0.9,0.7C291,46.2,290.6,46.5,290.1,46.5z"/>
			</g>
			<g id="XMLID_379_">
				<path id="XMLID_127_" class="st11" d="M216.6,129H212c-0.5,0-0.9-0.3-0.9-0.7c0-0.4,0.4-0.7,0.9-0.7h4.6c0.5,0,0.9,0.3,0.9,0.7
					C217.5,128.6,217.1,129,216.6,129z"/>
			</g>
			<g id="XMLID_377_">
				<path id="XMLID_126_" class="st10" d="M268.4,129h-46c-0.5,0-0.9-0.3-0.9-0.7c0-0.4,0.4-0.7,0.9-0.7h46c0.5,0,0.9,0.3,0.9,0.7
					C269.3,128.6,268.9,129,268.4,129z"/>
			</g>
			<g id="XMLID_375_">
				<path id="XMLID_125_" class="st0" d="M298.1,129h-24.2c-0.5,0-0.9-0.3-0.9-0.7c0-0.4,0.4-0.7,0.9-0.7h24.2
					c0.5,0,0.9,0.3,0.9,0.7C299,128.6,298.6,129,298.1,129z"/>
			</g>
			<g id="XMLID_373_">
				<path id="XMLID_124_" class="st10" d="M278.6,87.8h12.1c0.5,0,0.9,0.3,0.9,0.7c0,0.4-0.4,0.7-0.9,0.7h-12.1
					c-0.5,0-0.9-0.3-0.9-0.7C277.8,88.1,278.1,87.8,278.6,87.8z"/>
			</g>
			<g id="XMLID_371_">
				<path id="XMLID_123_" class="st11" d="M218.5,87.8h54.9c0.5,0,0.9,0.3,0.9,0.7c0,0.4-0.4,0.7-0.9,0.7h-54.9
					c-0.5,0-0.9-0.3-0.9-0.7C217.7,88.1,218.1,87.8,218.5,87.8z"/>
			</g>
			<g id="XMLID_369_">
				<path id="XMLID_122_" class="st0" d="M221.8,69.6H213c-0.5,0-0.9-0.3-0.9-0.7c0-0.4,0.4-0.7,0.9-0.7h8.8c0.5,0,0.9,0.3,0.9,0.7
					C222.7,69.3,222.3,69.6,221.8,69.6z"/>
			</g>
			<g id="XMLID_367_">
				<path id="XMLID_121_" class="st10" d="M261.9,69.6h-35.4c-0.5,0-0.9-0.3-0.9-0.7c0-0.4,0.4-0.7,0.9-0.7h35.4
					c0.5,0,0.9,0.3,0.9,0.7C262.7,69.3,262.3,69.6,261.9,69.6z"/>
			</g>
			<g id="XMLID_365_">
				<path id="XMLID_120_" class="st11" d="M298.1,69.6h-29.7c-0.5,0-0.9-0.3-0.9-0.7c0-0.4,0.4-0.7,0.9-0.7h29.7
					c0.5,0,0.9,0.3,0.9,0.7C299,69.3,298.6,69.6,298.1,69.6z"/>
			</g>
			<g id="XMLID_363_">
				<path id="XMLID_119_" class="st10" d="M281.7,80.1H213c-0.5,0-0.9-0.3-0.9-0.7c0-0.4,0.4-0.7,0.9-0.7h68.7
					c0.5,0,0.9,0.3,0.9,0.7C282.6,79.7,282.2,80.1,281.7,80.1z"/>
			</g>
			<g id="XMLID_361_">
				<path id="XMLID_118_" class="st0" d="M298.1,80.1H287c-0.5,0-0.9-0.3-0.9-0.7c0-0.4,0.4-0.7,0.9-0.7h11.1c0.5,0,0.9,0.3,0.9,0.7
					C299,79.7,298.6,80.1,298.1,80.1z"/>
			</g>
			<g id="XMLID_359_">
				<path id="XMLID_117_" class="st0" d="M282.6,57.3h15.5c0.5,0,0.9,0.3,0.9,0.7c0,0.4-0.4,0.7-0.9,0.7h-15.5
					c-0.5,0-0.9-0.3-0.9-0.7C281.7,57.6,282.1,57.3,282.6,57.3z"/>
			</g>
			<g id="XMLID_357_">
				<path id="XMLID_116_" class="st11" d="M213,57.3h64.3c0.5,0,0.9,0.3,0.9,0.7c0,0.4-0.4,0.7-0.9,0.7H213c-0.5,0-0.9-0.3-0.9-0.7
					C212.1,57.6,212.5,57.3,213,57.3z"/>
			</g>
		</g>
	</g>
	<g id="XMLID_342_">
		<g id="XMLID_345_">
			<g id="XMLID_351_">
				<rect id="XMLID_115_" x="329.2" y="58.3" class="st12" width="2" height="81.5"/>
				<rect id="XMLID_114_" x="331.2" y="58.3" class="st13" width="2.1" height="81.5"/>
				<rect id="XMLID_113_" x="333.4" y="58.3" class="st9" width="2" height="81.5"/>
			</g>
			<g id="XMLID_348_">
				<path id="XMLID_112_" class="st12" d="M333.5,49.2l-1.2-5.9l-1.2,5.9C331.9,49.6,332.7,49.6,333.5,49.2z"/>
				<path id="XMLID_111_" class="st14" d="M331.1,49.2l-1.9,9.1h6.2l-1.9-9.1C332.7,49.6,331.9,49.6,331.1,49.2z"/>
			</g>
			<rect id="XMLID_110_" x="329.2" y="139.8" class="st11" width="6.2" height="2.2"/>
			<rect id="XMLID_109_" x="329.2" y="142.1" class="st9" width="6.2" height="8.3"/>
		</g>
		<rect id="XMLID_108_" x="329.2" y="142.1" class="st12" width="1.9" height="8.3"/>
		<rect id="XMLID_107_" x="329.2" y="139.8" class="st15" width="1.9" height="2.2"/>
	</g>
	<g id="XMLID_245_">
		<g id="XMLID_295_">
			<rect id="XMLID_106_" x="304.8" y="16.8" class="st16" width="18.1" height="117.6"/>
			<g id="XMLID_310_">
				<g id="XMLID_339_">
					<rect id="XMLID_105_" x="304.8" y="128.4" class="st7" width="9.5" height="1.7"/>
				</g>
				<g id="XMLID_337_">
					<rect id="XMLID_104_" x="304.8" y="107.6" class="st7" width="9.5" height="1.8"/>
				</g>
				<g id="XMLID_335_">
					<rect id="XMLID_103_" x="304.8" y="97" class="st7" width="9.5" height="1.8"/>
				</g>
				<g id="XMLID_333_">
					<rect id="XMLID_102_" x="304.8" y="86.1" class="st7" width="9.5" height="1.8"/>
				</g>
				<g id="XMLID_331_">
					<rect id="XMLID_101_" x="304.8" y="75.6" class="st7" width="10" height="1.8"/>
				</g>
				<g id="XMLID_329_">
					<rect id="XMLID_100_" x="304.8" y="65.7" class="st7" width="10" height="1.8"/>
				</g>
				<g id="XMLID_327_">
					<rect id="XMLID_99_" x="304.8" y="54.7" class="st7" width="10" height="1.8"/>
				</g>
				<g id="XMLID_325_">
					<rect id="XMLID_98_" x="304.8" y="118" class="st7" width="9.5" height="1.8"/>
				</g>
				<g id="XMLID_323_">
					<rect id="XMLID_97_" x="304.8" y="123.1" class="st7" width="4.7" height="1.8"/>
				</g>
				<g id="XMLID_321_">
					<rect id="XMLID_96_" x="304.8" y="112.7" class="st7" width="4.7" height="1.8"/>
				</g>
				<g id="XMLID_319_">
					<rect id="XMLID_95_" x="304.8" y="102.5" class="st7" width="4.7" height="1.8"/>
				</g>
				<g id="XMLID_317_">
					<rect id="XMLID_94_" x="304.8" y="91.7" class="st7" width="4.7" height="1.8"/>
				</g>
				<g id="XMLID_315_">
					<rect id="XMLID_93_" x="304.8" y="81.3" class="st7" width="4.7" height="1.8"/>
				</g>
				<g id="XMLID_313_">
					<rect id="XMLID_92_" x="304.8" y="70.8" class="st7" width="4.7" height="1.8"/>
				</g>
				<g id="XMLID_311_">
					<rect id="XMLID_91_" x="304.8" y="60" class="st7" width="4.7" height="1.8"/>
				</g>
			</g>
			<g id="XMLID_297_">
				<g id="XMLID_308_">
					<rect id="XMLID_90_" x="304.8" y="47.2" class="st7" width="9.5" height="1.8"/>
				</g>
				<g id="XMLID_306_">
					<rect id="XMLID_89_" x="304.8" y="26.4" class="st7" width="9.5" height="1.8"/>
				</g>
				<g id="XMLID_304_">
					<rect id="XMLID_88_" x="304.8" y="36.8" class="st7" width="9.5" height="1.8"/>
				</g>
				<g id="XMLID_302_">
					<rect id="XMLID_87_" x="304.8" y="41.9" class="st7" width="4.7" height="1.8"/>
				</g>
				<g id="XMLID_300_">
					<rect id="XMLID_86_" x="304.8" y="31.5" class="st7" width="4.7" height="1.8"/>
				</g>
				<g id="XMLID_298_">
					<rect id="XMLID_85_" x="304.8" y="21.3" class="st7" width="4.7" height="1.8"/>
				</g>
			</g>
			<rect id="XMLID_84_" x="321.2" y="16.9" class="st7" width="1.7" height="117.6"/>
		</g>
		<g id="XMLID_246_">
			<defs>
				<rect id="XMLID_60_" x="298.3" y="120" width="38.4" height="26.8"/>
			</defs>
			<clipPath id="XMLID_170_">
				<use xlink:href="#XMLID_60_"  style="overflow:visible;"/>
			</clipPath>
			<g id="XMLID_248_" class="st17">
				<rect id="XMLID_83_" x="304.8" y="119" class="st16" width="18.1" height="117.6"/>
				<g id="XMLID_263_">
					<g id="XMLID_292_">
						<rect id="XMLID_82_" x="304.8" y="230.5" class="st7" width="9.5" height="1.7"/>
					</g>
					<g id="XMLID_290_">
						<rect id="XMLID_81_" x="304.8" y="209.8" class="st7" width="9.5" height="1.8"/>
					</g>
					<g id="XMLID_288_">
						<rect id="XMLID_80_" x="304.8" y="199.1" class="st7" width="9.5" height="1.8"/>
					</g>
					<g id="XMLID_286_">
						<rect id="XMLID_79_" x="304.8" y="188.3" class="st7" width="9.5" height="1.8"/>
					</g>
					<g id="XMLID_284_">
						<rect id="XMLID_78_" x="304.8" y="177.8" class="st7" width="10" height="1.8"/>
					</g>
					<g id="XMLID_282_">
						<rect id="XMLID_77_" x="304.8" y="167.8" class="st7" width="10" height="1.8"/>
					</g>
					<g id="XMLID_280_">
						<rect id="XMLID_76_" x="304.8" y="156.9" class="st7" width="10" height="1.8"/>
					</g>
					<g id="XMLID_278_">
						<rect id="XMLID_75_" x="304.8" y="220.2" class="st7" width="9.5" height="1.8"/>
					</g>
					<g id="XMLID_276_">
						<rect id="XMLID_74_" x="304.8" y="225.2" class="st7" width="4.7" height="1.8"/>
					</g>
					<g id="XMLID_274_">
						<rect id="XMLID_73_" x="304.8" y="214.8" class="st7" width="4.7" height="1.8"/>
					</g>
					<g id="XMLID_272_">
						<rect id="XMLID_72_" x="304.8" y="204.6" class="st7" width="4.7" height="1.8"/>
					</g>
					<g id="XMLID_270_">
						<rect id="XMLID_71_" x="304.8" y="193.8" class="st7" width="4.7" height="1.8"/>
					</g>
					<g id="XMLID_268_">
						<rect id="XMLID_70_" x="304.8" y="183.5" class="st7" width="4.7" height="1.8"/>
					</g>
					<g id="XMLID_266_">
						<rect id="XMLID_69_" x="304.8" y="172.9" class="st7" width="4.7" height="1.8"/>
					</g>
					<g id="XMLID_264_">
						<rect id="XMLID_68_" x="304.8" y="162.1" class="st7" width="4.7" height="1.8"/>
					</g>
				</g>
				<g id="XMLID_250_">
					<g id="XMLID_261_">
						<rect id="XMLID_67_" x="304.8" y="149.3" class="st7" width="9.5" height="1.8"/>
					</g>
					<g id="XMLID_259_">
						<rect id="XMLID_66_" x="304.8" y="128.6" class="st7" width="9.5" height="1.8"/>
					</g>
					<g id="XMLID_257_">
						<rect id="XMLID_65_" x="304.8" y="139" class="st7" width="9.5" height="1.8"/>
					</g>
					<g id="XMLID_255_">
						<rect id="XMLID_64_" x="304.8" y="144.1" class="st7" width="4.7" height="1.8"/>
					</g>
					<g id="XMLID_253_">
						<rect id="XMLID_63_" x="304.8" y="133.7" class="st7" width="4.7" height="1.8"/>
					</g>
					<g id="XMLID_251_">
						<rect id="XMLID_62_" x="304.8" y="123.5" class="st7" width="4.7" height="1.8"/>
					</g>
				</g>
				<rect id="XMLID_61_" x="321.2" y="119" class="st7" width="1.7" height="117.6"/>
			</g>
		</g>
	</g>
	<g id="XMLID_232_">
		<g id="XMLID_234_">
			<g id="XMLID_243_">
				<path id="XMLID_59_" class="st10" d="M322.5,174.8l-1.9-4.1c2.9-1.3,10.3-6,10.3-11.4c0-1.8-0.6-2.3-0.8-2.5
					c-1.4-1.2-5-0.5-6.3-0.2c-0.6,0.1-1,0.2-1.3,0.2v-4.5c0,0-0.1,0-0.1,0c0.1,0,0.3-0.1,0.6-0.1c2.3-0.5,6.9-1.4,10.1,1.2
					c1.6,1.4,2.5,3.4,2.5,6C335.4,168.6,323,174.6,322.5,174.8z"/>
			</g>
			<g id="XMLID_235_">
				<g id="XMLID_238_">
					<g id="XMLID_241_">
						<path id="XMLID_58_" class="st9" d="M289.6,147.9c-0.1,0.3-0.1,0.7-0.1,1v29.4c0,2.6,2.1,4.7,4.7,4.7h25.1
							c2.6,0,4.7-2.1,4.7-4.7V149c0-0.4,0-0.7-0.1-1H289.6z"/>
					</g>
					<g id="XMLID_239_">
						<path id="XMLID_57_" class="st18" d="M289.6,147.9c-0.1,0.3-0.1,0.7-0.1,1v29.4c0,2.6,2.1,4.7,4.7,4.7h1.2v-35.1H289.6z"/>
					</g>
				</g>
				<path id="XMLID_56_" class="st4" d="M326.3,147.4c0,1.3-1.1,2.4-2.3,2.4h-34.5c-1.3,0-2.4-1.1-2.4-2.4l0,0
					c0-1.3,1.1-2.3,2.4-2.3h34.5C325.2,145.1,326.3,146.1,326.3,147.4L326.3,147.4z"/>
				<rect id="XMLID_55_" x="289.4" y="149.8" class="st4" width="34.5" height="1.8"/>
			</g>
		</g>
		<path id="XMLID_54_" class="st19" d="M339.3,98.9h-44.1c-2.1,0-3.7,2.2-3.7,4.9c0,0.7,0.1,1.4,0.3,2.1H285c-2.2,0-4.1,2.4-4.1,5.3
			c0,3,1.8,5.3,4.1,5.3h20.4c0,0.1,0,0.1,0,0.2c0,1,0.3,2,0.7,2.7h-7.7c-1.8,0-3.2,1.9-3.2,4.2c0,2.3,1.4,4.2,3.2,4.2h4.2
			c-0.2,0.4-0.3,0.9-0.3,1.4c0,0.7,0.2,1.4,0.6,1.9h-3.7c-1.4,0-2.5,1.4-2.5,3.2c0,1.3,0.6,2.4,1.4,2.9c-0.4,0.5-0.6,1.3-0.6,2.3
			c0,1.6,0.7,2.8,1.5,2.8h4.9c0.8,0,1.5-1.3,1.5-2.8c0-0.8-0.2-1.5-0.4-2h6.6c1.4,0,2.4-1.4,2.4-3.2c0-0.8-0.3-1.6-0.7-2.2
			c1.2,0,2.2-1.3,2.2-3c0-0.5-0.1-1-0.3-1.4h4.2c1.8,0,3.2-1.9,3.2-4.2c0-1.1-0.3-2-0.8-2.8h4.8c1.7,0,3.1-1.9,3.1-4.1
			c0-2.3-1.4-4.1-3.1-4.1h-5.8c0.1-0.4,0.1-0.9,0.1-1.4c0-0.9-0.2-1.8-0.5-2.5h18.8c2.1,0,3.7-2.2,3.7-4.9
			C343.1,101.1,341.4,98.9,339.3,98.9z"/>
	</g>
	<g id="XMLID_182_">
		<g id="XMLID_185_">
			<rect id="XMLID_53_" x="6.9" y="146.7" class="st20" width="122.6" height="40"/>
			<g id="XMLID_229_">
				<path id="XMLID_52_" class="st21" d="M129.5,144.8c0-1.2-0.9-2.1-2.1-2.1H9c-1.2,0-2.1,0.9-2.1,2.1v2h122.6V144.8z"/>
			</g>
			<rect id="XMLID_51_" x="6.9" y="186.8" class="st21" width="122.6" height="1.9"/>
			<g id="XMLID_186_">
				<polygon id="XMLID_50_" class="st21" points="22.9,163.8 22.9,163.8 21.5,163.8 21.5,169.1 22.9,169.1 29.3,169.1 30.6,169.1 
					30.6,163.8 29.3,163.8 29.3,163.8 				"/>
				<polygon id="XMLID_49_" class="st21" points="20.2,155 21.5,155 21.5,153.6 21.5,152.4 21.5,151 20.2,151 12.7,151 11.4,151 
					11.4,152.4 11.4,153.6 11.4,155 12.7,155 				"/>
				<polygon id="XMLID_48_" class="st21" points="32.4,155 33.8,155 33.8,153.6 33.8,152.4 33.8,151 32.4,151 24.9,151 23.6,151 
					23.6,152.4 23.6,153.6 23.6,155 24.9,155 				"/>
				<polygon id="XMLID_47_" class="st21" points="45,155 46.4,155 46.4,153.6 46.4,152.4 46.4,150.5 36.2,150.5 36.2,152.4 
					36.2,153.6 36.2,155 37.6,155 				"/>
				<polygon id="XMLID_46_" class="st21" points="57.3,155 58.6,155 58.6,153.6 58.6,152.4 58.6,150.5 48.4,150.5 48.4,152.4 
					48.4,153.6 48.4,155 49.8,155 				"/>
				<polygon id="XMLID_45_" class="st21" points="69.9,155 71.2,155 71.2,153.6 71.2,152.4 71.2,150.5 61.1,150.5 61.1,152.4 
					61.1,153.6 61.1,155 62.4,155 				"/>
				<polygon id="XMLID_44_" class="st21" points="82.1,155 83.5,155 83.5,153.6 83.5,152.4 83.5,150.5 73.3,150.5 73.3,152.4 
					73.3,153.6 73.3,155 74.6,155 				"/>
				<polygon id="XMLID_43_" class="st21" points="94.7,155 96.1,155 96.1,153.6 96.1,152.4 96.1,150.5 85.9,150.5 85.9,152.4 
					85.9,153.6 85.9,155 87.3,155 				"/>
				<polygon id="XMLID_42_" class="st21" points="107,155 108.3,155 108.3,150.5 98.1,150.5 98.1,155 99.5,155 				"/>
				<polygon id="XMLID_41_" class="st21" points="115.6,155 117,155 117,153.6 117,152.4 117,150.5 110.7,150.5 110.7,152.4 
					110.7,153.6 110.7,155 112.1,155 				"/>
				<polygon id="XMLID_40_" class="st21" points="118.8,150.5 118.8,152.4 118.8,153.6 118.8,155 120.2,155 123.7,155 125.1,155 
					125.1,153.6 125.1,152.4 125.1,150.5 				"/>
				<polygon id="XMLID_39_" class="st21" points="112.9,162.3 112.9,160.9 112.9,158.3 112.9,156.9 111.5,156.9 105.1,156.9 
					103.7,156.9 103.7,158.3 103.7,160.9 103.7,162.3 105.1,162.3 111.5,162.3 				"/>
				<polygon id="XMLID_38_" class="st21" points="101.1,162.3 101.1,156.9 99.7,156.9 93.3,156.9 91.9,156.9 91.9,158.3 91.9,160.9 
					91.9,162.3 93.3,162.3 99.7,162.3 				"/>
				<polygon id="XMLID_37_" class="st21" points="87.7,162.3 89,162.3 89,160.9 89,158.3 89,156.9 87.7,156.9 81.3,156.9 
					79.9,156.9 79.9,158.3 79.9,160.9 79.9,162.3 81.3,162.3 				"/>
				<polygon id="XMLID_36_" class="st21" points="75.2,162.3 76.6,162.3 76.6,160.9 76.6,160.9 76.6,158.3 76.6,158.3 76.6,156.9 
					75.2,156.9 68.8,156.9 67.4,156.9 67.4,158.3 67.4,160.9 67.4,162.3 68.8,162.3 				"/>
				<polygon id="XMLID_35_" class="st21" points="63.2,162.3 64.5,162.3 64.5,156.9 63.2,156.9 56.8,156.9 55.4,156.9 55.4,158.3 
					55.4,160.9 55.4,162.3 56.8,162.3 				"/>
				<polygon id="XMLID_34_" class="st21" points="50.9,162.3 52.2,162.3 52.2,160.9 52.2,158.3 52.2,156.9 50.9,156.9 44.4,156.9 
					43.1,156.9 43.1,162.3 44.4,162.3 				"/>
				<polygon id="XMLID_33_" class="st21" points="32.4,162.3 38.8,162.3 40.2,162.3 40.2,160.9 40.2,158.3 40.2,156.9 38.8,156.9 
					32.4,156.9 31.1,156.9 31.1,158.3 31.1,158.3 31.1,160.9 31.1,160.9 31.1,162.3 				"/>
				<polygon id="XMLID_32_" class="st21" points="31.9,176.1 31.9,170.8 30.6,170.8 24.2,170.8 22.8,170.8 22.8,176.1 24.2,176.1 
					30.6,176.1 				"/>
				<path id="XMLID_31_" class="st21" d="M36.2,176.1h6.4h1.4v-5.3h-1.4h-6.4h-1.3v1c0,0.1-0.1,0.3-0.1,0.4v2.6c0,0.1,0,0.3,0.1,0.4
					v1H36.2z"/>
				<polygon id="XMLID_30_" class="st21" points="41.3,169.1 42.7,169.1 42.7,163.8 41.3,163.8 41.3,163.8 34.9,163.8 34.9,163.8 
					33.5,163.8 33.5,169.1 34.9,169.1 				"/>
				<polygon id="XMLID_29_" class="st21" points="53.6,169.1 55,169.1 55,163.8 53.6,163.8 53.6,163.8 47.2,163.8 47.2,163.8 
					45.9,163.8 45.9,169.1 47.2,169.1 				"/>
				<polygon id="XMLID_28_" class="st21" points="54.9,176.1 56.3,176.1 56.3,174.8 56.3,172.2 56.3,170.8 54.9,170.8 48.5,170.8 
					47.2,170.8 47.2,172.2 47.2,174.8 47.2,176.1 48.5,176.1 				"/>
				<polygon id="XMLID_27_" class="st21" points="65.7,169.1 67,169.1 67,167.8 67,165.2 67,163.8 65.7,163.8 65.7,163.8 
					59.2,163.8 59.2,163.8 57.9,163.8 57.9,165.2 57.9,167.8 57.9,169.1 59.2,169.1 				"/>
				<polygon id="XMLID_26_" class="st21" points="67,176.1 68.3,176.1 68.3,174.8 68.3,174.8 68.3,172.2 68.3,172.2 68.3,170.8 
					67,170.8 60.5,170.8 59.2,170.8 59.2,172.2 59.2,174.8 59.2,176.1 60.5,176.1 				"/>
				<polygon id="XMLID_25_" class="st21" points="78.1,169.1 79.5,169.1 79.5,163.8 78.1,163.8 78.1,163.8 71.7,163.8 71.7,163.8 
					70.4,163.8 70.4,169.1 71.7,169.1 				"/>
				<polygon id="XMLID_24_" class="st21" points="79.4,176.1 80.8,176.1 80.8,174.8 80.8,172.2 80.8,170.8 79.4,170.8 73,170.8 
					71.7,170.8 71.7,172.2 71.7,174.8 71.7,176.1 73,176.1 				"/>
				<polygon id="XMLID_23_" class="st21" points="90.2,169.1 91.5,169.1 91.5,163.8 90.2,163.8 90.2,163.8 83.7,163.8 83.7,163.8 
					82.4,163.8 82.4,165.2 82.4,167.8 82.4,169.1 83.7,169.1 				"/>
				<polygon id="XMLID_22_" class="st21" points="92.8,170.8 91.5,170.8 85,170.8 83.7,170.8 83.7,172.2 83.7,174.8 83.7,176.1 
					85,176.1 91.5,176.1 92.8,176.1 92.8,174.8 92.8,174.8 92.8,172.2 92.8,172.2 				"/>
				<polygon id="XMLID_21_" class="st21" points="102,169.1 103.3,169.1 103.3,163.8 102,163.8 102,163.8 95.5,163.8 95.5,163.8 
					94.2,163.8 94.2,165.2 94.2,167.8 94.2,169.1 95.5,169.1 				"/>
				<polygon id="XMLID_20_" class="st21" points="96.8,170.8 95.5,170.8 95.5,176.1 96.8,176.1 103.3,176.1 104.6,176.1 
					104.6,170.8 103.3,170.8 				"/>
				<polygon id="XMLID_19_" class="st21" points="97.1,177.8 95.8,177.8 95.8,179.1 95.8,181.7 95.8,183 97.1,183 101.9,183 
					103.3,183 103.3,181.7 103.3,179.1 103.3,177.8 101.9,177.8 				"/>
				<polygon id="XMLID_18_" class="st21" points="107.6,177.8 106.3,177.8 106.3,179.1 106.3,181.7 106.3,183 107.6,183 112.4,183 
					113.8,183 113.8,181.7 113.8,179.1 113.8,177.8 112.4,177.8 				"/>
				<polygon id="XMLID_17_" class="st21" points="118.9,177.8 117.6,177.8 117.6,179.1 117.6,181.7 117.6,183 118.9,183 123.7,183 
					125.1,183 125.1,181.7 125.1,179.1 125.1,177.8 123.7,177.8 				"/>
				<path id="XMLID_16_" class="st21" d="M117.1,159h-1.3v1.2c0,0,0,0.1,0,0.1v4.9h-7.9v1.4v4.3v0.4v2.2v1.4h1.4h6.6h3h4.9h1.4v-1.4
					V171v-0.7v-10V159h-1.4H117.1z"/>
				<polygon id="XMLID_15_" class="st21" points="27.3,162.5 28.7,162.5 28.7,161.1 28.7,158.3 28.7,156.9 27.3,156.9 12.7,156.9 
					11.4,156.9 11.4,158.3 11.4,161.1 11.4,162.5 12.7,162.5 				"/>
				<polygon id="XMLID_14_" class="st21" points="17.1,169.1 18.5,169.1 18.5,167.8 18.5,167.8 18.5,165.7 18.5,165.7 18.5,164.4 
					17.1,164.4 12.7,164.4 11.4,164.4 11.4,165.7 11.4,167.8 11.4,169.1 12.7,169.1 				"/>
				<polygon id="XMLID_13_" class="st21" points="19.4,176.1 20.7,176.1 20.7,174.8 20.7,172.7 20.7,171.4 19.4,171.4 12.7,171.4 
					11.4,171.4 11.4,172.7 11.4,174.8 11.4,176.1 12.7,176.1 				"/>
				<polygon id="XMLID_12_" class="st21" points="22.8,177.8 21.5,177.8 12.7,177.8 11.4,177.8 11.4,179.1 11.4,181.7 11.4,183 
					12.7,183 21.5,183 22.8,183 22.8,181.7 22.8,181.7 22.8,179.1 22.8,179.1 				"/>
				<polygon id="XMLID_11_" class="st21" points="26.7,177.8 25.3,177.8 25.3,179.1 25.3,181.7 25.3,183 26.7,183 35.4,183 
					36.8,183 36.8,181.7 36.8,179.1 36.8,177.8 35.4,177.8 				"/>
				<polygon id="XMLID_10_" class="st21" points="40.8,177.8 39.5,177.8 39.5,179.1 39.5,181.7 39.5,183 40.8,183 91.4,183 
					92.7,183 92.7,181.7 92.7,179.1 92.7,177.8 91.4,177.8 				"/>
			</g>
		</g>
		<g id="XMLID_183_">
			<path id="XMLID_9_" class="st7" d="M62.5,142.7h-2v-10.5c0,0-0.2-2.6,1.6-4.5c1.1-1.2,2.7-1.8,4.8-1.8h18.2v2H66.8
				c-1.5,0-2.6,0.4-3.3,1.2c-1.1,1.2-1,3-1,3.1L62.5,142.7z"/>
		</g>
	</g>
	<g id="XMLID_179_">
		<path id="XMLID_8_" class="st9" d="M62,32.4H33.3c-4,0-7.2-3.3-7.2-7.2v-6.2c0-4,3.3-7.2,7.2-7.2H62c4,0,7.2,3.3,7.2,7.2v6.2
			C69.3,29.1,66,32.4,62,32.4z"/>
		<text id="XMLID_7_" transform="matrix(1 0 0 1 32.9245 26.4708)" class="st20 st2 st3">HTML</text>
	</g>
	<g id="XMLID_176_">
		<path id="XMLID_6_" class="st9" d="M103.4,65.6H74.7c-4,0-7.2-3.3-7.2-7.2v-6.2c0-4,3.3-7.2,7.2-7.2h28.7c4,0,7.2,3.3,7.2,7.2v6.2
			C110.6,62.3,107.4,65.6,103.4,65.6z"/>
		<text id="XMLID_5_" transform="matrix(1 0 0 1 77.2219 59.6495)" class="st20 st2 st3">JADE</text>
	</g>
	<g id="XMLID_173_">
		<path id="XMLID_4_" class="st9" d="M152.8,31.2h-42.1c-4,0-7.3-3.3-7.3-7.3v-4.7c0-4,3.3-7.3,7.3-7.3h42.1c4,0,7.3,3.3,7.3,7.3
			v4.7C160.1,28,156.8,31.2,152.8,31.2z"/>
		<text id="XMLID_3_" transform="matrix(1 0 0 1 107.7497 25.7721)" class="st22 st2 st3">Bootstrap</text>
	</g>
	<g id="XMLID_169_">
		<g id="XMLID_171_">
			<path id="XMLID_2_" class="st9" d="M9.8,70.8c0,4.4,3.6,8,8,8h27.1c4.4,0,8-3.6,8-8V66c0-4.4-3.6-8-8-8H17.8c-4.4,0-8,3.6-8,8
				V70.8z"/>
		</g>
		<text id="XMLID_1_" transform="matrix(1 0 0 1 19.6691 72.2897)" class="st23 st2 st3">LESS</text>
	</g>
</g>
</svg>
